<svg width="20" height="21" viewBox="0 0 20 21" fill="none" xmlns="http://www.w3.org/2000/svg">
<path d="M2.5 14.6667H12.5C12.7124 14.6669 12.9167 14.7483 13.0711 14.8941C13.2256 15.0399 13.3185 15.2391 13.331 15.4512C13.3434 15.6632 13.2744 15.872 13.1381 16.0349C13.0018 16.1978 12.8084 16.3024 12.5975 16.3275L12.5 16.3334H2.5C2.2876 16.3331 2.0833 16.2518 1.92886 16.106C1.77441 15.9602 1.68147 15.7609 1.66902 15.5489C1.65657 15.3368 1.72556 15.128 1.86188 14.9652C1.99821 14.8023 2.19158 14.6976 2.4025 14.6725L2.5 14.6667ZM2.5 9.66669H17.5C17.7124 9.66692 17.9167 9.74825 18.0711 9.89406C18.2256 10.0399 18.3185 10.2391 18.331 10.4512C18.3434 10.6632 18.2744 10.872 18.1381 11.0349C18.0018 11.1978 17.8084 11.3024 17.5975 11.3275L17.5 11.3334H2.5C2.2876 11.3331 2.0833 11.2518 1.92886 11.106C1.77441 10.9602 1.68147 10.7609 1.66902 10.5489C1.65657 10.3368 1.72556 10.128 1.86188 9.96516C1.99821 9.80228 2.19158 9.69761 2.4025 9.67252L2.5 9.66669ZM2.5 4.66669H15C15.2124 4.66692 15.4167 4.74825 15.5711 4.89406C15.7256 5.03987 15.8185 5.23915 15.831 5.45118C15.8434 5.66322 15.7744 5.872 15.6381 6.03488C15.5018 6.19776 15.3084 6.30243 15.0975 6.32752L15 6.33335H2.5C2.2876 6.33312 2.0833 6.25179 1.92886 6.10598C1.77441 5.96017 1.68147 5.76089 1.66902 5.54886C1.65657 5.33682 1.72556 5.12804 1.86188 4.96516C1.99821 4.80228 2.19158 4.69761 2.4025 4.67252L2.5 4.66669Z" fill="#BC4053"/>
</svg>
